<?xml version="1.0" encoding="UTF-8"?>
<svg id="Ebene_1" xmlns="http://www.w3.org/2000/svg" xmlns:xlink="http://www.w3.org/1999/xlink" version="1.1" viewBox="0 0 360 47.6">
  <!-- Generator: Adobe Illustrator 30.0.0, SVG Export Plug-In . SVG Version: 2.1.1 Build 123)  -->
  <defs>
    <style>
      .st0 {
        fill: #f4f4f4;
      }

      .st1 {
        fill: #fff;
        stroke: #fff;
        stroke-linejoin: round;
        stroke-width: 2px;
      }

      .st2 {
        isolation: isolate;
      }

      .st3 {
        fill: url(#Unbenannter_Verlauf_109);
      }
    </style>
    <linearGradient id="Unbenannter_Verlauf_109" data-name="Unbenannter Verlauf 109" x1="-772.6" y1="559.2" x2="-772.2" y2="558.8" gradientTransform="translate(92711 67105.3) scale(120 -120)" gradientUnits="userSpaceOnUse">
      <stop offset="0" stop-color="#008482"/>
      <stop offset="1" stop-color="#0d5b51"/>
    </linearGradient>
  </defs>
  <circle class="st3" cx="24.1" cy="23.8" r="23.8"/>
  <path class="st1" d="M35.7,16.9l-14.8,18.8.2-9.6-8.6,1.7,6.8-5.6-7.5-5.9,23.9.6Z"/>
  <g class="st2">
    <path class="st0" d="M66.5,13v-3.7h24.1v3.7h-24.1ZM76.5,38.9V10.2h4v28.7h-4Z"/>
    <path class="st0" d="M95.4,38.9V9.3h4v29.6h-4ZM98.1,25.4v-3.7h17.3v3.7h-17.3ZM114.5,38.9V9.3h4v29.6h-4Z"/>
    <path class="st0" d="M125.5,38.9V9.3h4v29.6h-4ZM128.2,13v-3.7h16.8v3.7h-16.8ZM128.2,25.6v-3.5h15.6v3.5h-15.6ZM128.2,38.9v-3.7h17v3.7h-17Z"/>
    <path class="st0" d="M159.5,38.9V9.3h4v29.6h-4ZM162.2,13v-3.7h16.2v3.7h-16.2ZM162.2,25.9v-3.7h15.4v3.7h-15.4Z"/>
    <path class="st0" d="M181.4,38.9l12.2-29.6h2.9l12.1,29.6h-4.3l-10-25h1.5l-10,25h-4.3ZM187.2,32.2v-3.5h15.6v3.5h-15.6Z"/>
    <path class="st0" d="M221.4,39.3c-2.3,0-4.3-.4-5.9-1.3s-3.1-2.1-4.4-3.7l2.7-2.7c.9,1.3,2,2.3,3.2,3,1.2.7,2.7,1,4.5,1s3.2-.4,4.2-1.2c1.1-.8,1.6-1.8,1.6-3.2s-.3-2-.8-2.7c-.5-.7-1.2-1.2-2.1-1.7s-1.8-.8-2.8-1.2-2-.7-3.1-1.1c-1-.4-2-.9-2.8-1.6-.9-.6-1.6-1.4-2.1-2.4-.5-1-.8-2.2-.8-3.8s.4-3.1,1.2-4.3c.8-1.2,1.9-2.1,3.3-2.7,1.4-.6,3-1,4.8-1s3.7.4,5.2,1.1c1.5.8,2.8,1.7,3.8,3l-2.7,2.7c-.9-1-1.8-1.8-2.8-2.3s-2.2-.8-3.5-.8-2.9.3-3.8,1c-.9.7-1.4,1.7-1.4,2.9s.3,1.8.8,2.4c.5.6,1.2,1.1,2.1,1.6.9.4,1.8.8,2.8,1.2,1,.4,2.1.7,3.1,1.2s2,1,2.8,1.6c.9.7,1.5,1.5,2.1,2.5.5,1,.8,2.3.8,3.9,0,2.6-.9,4.7-2.7,6.1s-4.3,2.2-7.4,2.2Z"/>
    <path class="st0" d="M234.7,13v-3.7h24.1v3.7h-24.1ZM244.7,38.9V10.2h4v28.7h-4Z"/>
    <path class="st0" d="M270.2,38.9l12.1-29.6h2.9l12.1,29.6h-4.3l-10-25h1.5l-10,25h-4.3ZM276,32.2v-3.5h15.6v3.5h-15.6Z"/>
    <path class="st0" d="M302.1,38.9V9.3h4v29.6h-4ZM304.7,27.4v-3.5h8.1c1.1,0,2.1-.2,3-.7.9-.5,1.5-1.1,2-1.9.5-.8.7-1.8.7-2.9s-.2-2.1-.7-2.9-1.2-1.5-2-1.9c-.9-.5-1.9-.7-3-.7h-8.1v-3.5h8.3c1.8,0,3.5.4,4.9,1.1,1.5.7,2.6,1.8,3.4,3.1.8,1.4,1.3,2.9,1.3,4.8s-.4,3.4-1.3,4.8c-.8,1.4-2,2.4-3.4,3.2-1.4.7-3.1,1.1-4.9,1.1h-8.3Z"/>
    <path class="st0" d="M327.9,38.9V9.3h4v29.6h-4ZM330.6,27.4v-3.5h8.1c1.1,0,2.1-.2,3-.7.9-.5,1.5-1.1,2-1.9.5-.8.7-1.8.7-2.9s-.2-2.1-.7-2.9-1.2-1.5-2-1.9c-.9-.5-1.9-.7-3-.7h-8.1v-3.5h8.3c1.8,0,3.5.4,4.9,1.1,1.5.7,2.6,1.8,3.4,3.1.8,1.4,1.3,2.9,1.3,4.8s-.4,3.4-1.3,4.8c-.8,1.4-2,2.4-3.4,3.2-1.4.7-3.1,1.1-4.9,1.1h-8.3Z"/>
  </g>
</svg>